<mxfile host="app.diagrams.net" modified="2024-01-16T11:20:33.320Z" agent="Mozilla/5.0 (Windows NT 10.0; Win64; x64) AppleWebKit/537.36 (KHTML, like Gecko) Chrome/119.0.0.0 Safari/537.36" etag="_E0Cn4FDS29ISLXZxg5I" version="22.1.17" type="github">
  <diagram name="第 1 页" id="DiqK2zHsX7JkeJQSn5oS">
    <mxGraphModel dx="1050" dy="557" grid="1" gridSize="10" guides="1" tooltips="1" connect="1" arrows="1" fold="1" page="1" pageScale="1" pageWidth="827" pageHeight="1169" math="0" shadow="0">
      <root>
        <mxCell id="0" />
        <mxCell id="1" parent="0" />
        <mxCell id="CABZNRvn-cbEBmHOcwjS-1" value="" style="group" vertex="1" connectable="0" parent="1">
          <mxGeometry x="180" y="220" width="140" height="40" as="geometry" />
        </mxCell>
        <mxCell id="CABZNRvn-cbEBmHOcwjS-2" value="肝气" style="ellipse;whiteSpace=wrap;html=1;fontSize=13;" vertex="1" parent="CABZNRvn-cbEBmHOcwjS-1">
          <mxGeometry width="80" height="40" as="geometry" />
        </mxCell>
        <mxCell id="CABZNRvn-cbEBmHOcwjS-3" value="" style="endArrow=classic;html=1;rounded=0;exitX=1;exitY=0.5;exitDx=0;exitDy=0;" edge="1" parent="CABZNRvn-cbEBmHOcwjS-1" source="CABZNRvn-cbEBmHOcwjS-2" target="CABZNRvn-cbEBmHOcwjS-4">
          <mxGeometry width="50" height="50" relative="1" as="geometry">
            <mxPoint x="127" y="21" as="sourcePoint" />
            <mxPoint x="272" y="20" as="targetPoint" />
          </mxGeometry>
        </mxCell>
        <mxCell id="CABZNRvn-cbEBmHOcwjS-4" value="由肝精所化" style="text;html=1;strokeColor=#d79b00;fillColor=#ffe6cc;align=center;verticalAlign=middle;whiteSpace=wrap;rounded=0;" vertex="1" parent="CABZNRvn-cbEBmHOcwjS-1">
          <mxGeometry x="60" y="5" width="80" height="30" as="geometry" />
        </mxCell>
        <mxCell id="CABZNRvn-cbEBmHOcwjS-5" value="肝气功能（肝精的表现）" style="swimlane;fontStyle=0;childLayout=stackLayout;horizontal=1;startSize=30;horizontalStack=0;resizeParent=1;resizeParentMax=0;resizeLast=0;collapsible=1;marginBottom=0;whiteSpace=wrap;html=1;fontSize=14;" vertex="1" parent="1">
          <mxGeometry x="470" y="100" width="220" height="150" as="geometry" />
        </mxCell>
        <mxCell id="CABZNRvn-cbEBmHOcwjS-6" value="调畅全身气机" style="text;strokeColor=none;fillColor=none;align=left;verticalAlign=middle;spacingLeft=4;spacingRight=4;overflow=hidden;points=[[0,0.5],[1,0.5]];portConstraint=eastwest;rotatable=0;whiteSpace=wrap;html=1;fontSize=14;" vertex="1" parent="CABZNRvn-cbEBmHOcwjS-5">
          <mxGeometry y="30" width="220" height="30" as="geometry" />
        </mxCell>
        <mxCell id="CABZNRvn-cbEBmHOcwjS-7" value="促进血液和津液运行输布" style="text;strokeColor=none;fillColor=none;align=left;verticalAlign=middle;spacingLeft=4;spacingRight=4;overflow=hidden;points=[[0,0.5],[1,0.5]];portConstraint=eastwest;rotatable=0;whiteSpace=wrap;html=1;fontSize=14;" vertex="1" parent="CABZNRvn-cbEBmHOcwjS-5">
          <mxGeometry y="60" width="220" height="30" as="geometry" />
        </mxCell>
        <mxCell id="CABZNRvn-cbEBmHOcwjS-20" value="促进食物消化" style="text;strokeColor=none;fillColor=none;align=left;verticalAlign=middle;spacingLeft=4;spacingRight=4;overflow=hidden;points=[[0,0.5],[1,0.5]];portConstraint=eastwest;rotatable=0;whiteSpace=wrap;html=1;fontSize=14;" vertex="1" parent="CABZNRvn-cbEBmHOcwjS-5">
          <mxGeometry y="90" width="220" height="30" as="geometry" />
        </mxCell>
        <mxCell id="CABZNRvn-cbEBmHOcwjS-8" value="促进胆汁的分泌和排泄" style="text;strokeColor=none;fillColor=none;align=left;verticalAlign=middle;spacingLeft=4;spacingRight=4;overflow=hidden;points=[[0,0.5],[1,0.5]];portConstraint=eastwest;rotatable=0;whiteSpace=wrap;html=1;fontSize=14;" vertex="1" parent="CABZNRvn-cbEBmHOcwjS-5">
          <mxGeometry y="120" width="220" height="30" as="geometry" />
        </mxCell>
        <mxCell id="CABZNRvn-cbEBmHOcwjS-9" style="edgeStyle=orthogonalEdgeStyle;rounded=0;orthogonalLoop=1;jettySize=auto;html=1;exitX=1;exitY=0.5;exitDx=0;exitDy=0;entryX=0;entryY=0.25;entryDx=0;entryDy=0;" edge="1" parent="1" source="CABZNRvn-cbEBmHOcwjS-4" target="CABZNRvn-cbEBmHOcwjS-5">
          <mxGeometry relative="1" as="geometry" />
        </mxCell>
        <mxCell id="CABZNRvn-cbEBmHOcwjS-10" value="" style="group" vertex="1" connectable="0" parent="1">
          <mxGeometry x="460" y="320" width="320" height="131" as="geometry" />
        </mxCell>
        <mxCell id="CABZNRvn-cbEBmHOcwjS-11" value="肝气疏泄失常" style="swimlane;fontStyle=0;childLayout=stackLayout;horizontal=1;startSize=30;horizontalStack=0;resizeParent=1;resizeParentMax=0;resizeLast=0;collapsible=1;marginBottom=0;whiteSpace=wrap;html=1;" vertex="1" parent="CABZNRvn-cbEBmHOcwjS-10">
          <mxGeometry x="12.307692307692307" width="307.69230769230774" height="131" as="geometry" />
        </mxCell>
        <mxCell id="CABZNRvn-cbEBmHOcwjS-12" value="" style="group;fontSize=13;align=left;" vertex="1" connectable="0" parent="CABZNRvn-cbEBmHOcwjS-11">
          <mxGeometry y="30" width="307.69230769230774" height="101" as="geometry" />
        </mxCell>
        <mxCell id="CABZNRvn-cbEBmHOcwjS-13" value="" style="group" vertex="1" connectable="0" parent="CABZNRvn-cbEBmHOcwjS-12">
          <mxGeometry x="7.384615384615385" width="300.3076923076923" height="40" as="geometry" />
        </mxCell>
        <mxCell id="CABZNRvn-cbEBmHOcwjS-14" value="疏泄不及（肝气郁结）" style="rounded=1;whiteSpace=wrap;html=1;fontSize=13;align=left;" vertex="1" parent="CABZNRvn-cbEBmHOcwjS-13">
          <mxGeometry width="140.33069734004312" height="40" as="geometry" />
        </mxCell>
        <mxCell id="CABZNRvn-cbEBmHOcwjS-15" value="眼目干涩、头晕或夜盲" style="text;html=1;strokeColor=#d79b00;fillColor=#ffe6cc;align=center;verticalAlign=middle;whiteSpace=wrap;rounded=0;fontSize=13;" vertex="1" parent="CABZNRvn-cbEBmHOcwjS-13">
          <mxGeometry x="131.91085549964052" y="5.365853658536585" width="168.39683680805175" height="29.26829268292683" as="geometry" />
        </mxCell>
        <mxCell id="CABZNRvn-cbEBmHOcwjS-16" value="" style="group;fontSize=13;align=left;" vertex="1" connectable="0" parent="CABZNRvn-cbEBmHOcwjS-12">
          <mxGeometry y="50" width="307.69230769230774" height="41" as="geometry" />
        </mxCell>
        <mxCell id="CABZNRvn-cbEBmHOcwjS-17" value="不能濡养筋经" style="rounded=1;whiteSpace=wrap;html=1;fontSize=13;align=left;" vertex="1" parent="CABZNRvn-cbEBmHOcwjS-16">
          <mxGeometry x="8.391608391608392" width="139.86013986013987" height="41" as="geometry" />
        </mxCell>
        <mxCell id="CABZNRvn-cbEBmHOcwjS-18" value="筋脉拘急、肢体麻木" style="text;html=1;strokeColor=#d79b00;fillColor=#ffe6cc;align=center;verticalAlign=middle;whiteSpace=wrap;rounded=0;fontSize=13;" vertex="1" parent="CABZNRvn-cbEBmHOcwjS-16">
          <mxGeometry x="139.86013986013987" y="5.5" width="167.83216783216784" height="30" as="geometry" />
        </mxCell>
        <mxCell id="CABZNRvn-cbEBmHOcwjS-19" value="" style="verticalLabelPosition=bottom;verticalAlign=top;html=1;shape=mxgraph.basic.x;fontColor=#ffffff;fillColor=#d80073;strokeColor=#A50040;" vertex="1" parent="CABZNRvn-cbEBmHOcwjS-10">
          <mxGeometry width="12.307692307692307" height="10" as="geometry" />
        </mxCell>
      </root>
    </mxGraphModel>
  </diagram>
</mxfile>
